v -0.571187 -0.571187 0.571187
v -0.571187 0.571187 0.571187
v -0.571187 -0.571187 -0.571187
v -0.571187 0.571187 -0.571187
v 0.571187 -0.571187 0.571187
v 0.571187 0.571187 0.571187
v 0.571187 -0.571187 -0.571187
v 0.571187 0.571187 -0.571187
v -0.700293 -0.700293 -0.000000
v -0.698078 -0.000000 0.698078
v -0.700293 0.700293 0.000000
v -0.698077 -0.000000 -0.698077
v 0.000000 -0.700293 -0.700293
v -0.000000 0.700293 -0.700293
v 0.698078 -0.000000 -0.698078
v 0.700293 -0.700293 0.000000
v 0.700293 0.700293 0.000000
v 0.698078 -0.000000 0.698078
v -0.000000 -0.700293 0.700293
v -0.000000 0.700293 0.700293
v -0.987231 0.000000 0.000000
v 0.000000 0.000000 -0.987231
v 0.987231 0.000000 0.000000
v -0.000000 0.000000 0.987231
v 0.000000 -0.997577 0.000000
v -0.000000 0.997577 0.000000
v -0.302990 -0.666479 -0.666479
v -0.302990 0.666479 -0.666479
v -0.302990 -0.666479 0.666479
v -0.302990 0.666479 0.666479
v -0.372874 0.000000 -0.914051
v -0.372874 0.000000 0.914051
v -0.374724 -0.919200 0.000000
v -0.374724 0.919200 0.000000
v 0.302990 -0.666479 -0.666479
v 0.302990 0.666479 -0.666479
v 0.302990 -0.666479 0.666479
v 0.302990 0.666479 0.666479
v 0.372874 0.000000 -0.914051
v 0.372874 0.000000 0.914052
v 0.374724 -0.919200 0.000000
v 0.374724 0.919200 0.000000
v -0.666479 -0.666479 -0.302990
v -0.666479 0.666479 -0.302990
v 0.666479 -0.666479 -0.302990
v 0.666479 0.666479 -0.302990
v -0.914051 0.000000 -0.372874
v 0.914051 0.000000 -0.372874
v 0.000000 -0.919200 -0.374724
v -0.000000 0.919200 -0.374724
v -0.351351 0.858480 -0.351351
v -0.351351 -0.858480 -0.351351
v 0.351351 0.858481 -0.351351
v 0.351351 -0.858481 -0.351351
v -0.666479 -0.666479 0.302990
v -0.666479 0.666479 0.302990
v 0.666479 -0.666479 0.302990
v 0.666479 0.666479 0.302990
v -0.914051 0.000000 0.372874
v 0.914051 0.000000 0.372874
v -0.000000 -0.919200 0.374724
v -0.000000 0.919200 0.374724
v -0.351351 0.858481 0.351351
v -0.351351 -0.858481 0.351351
v 0.351351 0.858481 0.351351
v 0.351351 -0.858481 0.351351
v -0.664937 -0.302258 0.664937
v -0.664937 -0.302258 -0.664937
v 0.664937 -0.302258 -0.664937
v 0.664938 -0.302258 0.664938
v -0.914887 -0.373174 0.000000
v 0.000000 -0.373174 -0.914887
v 0.914887 -0.373174 0.000000
v -0.000000 -0.373174 0.914887
v -0.350131 -0.350131 0.854872
v -0.350131 -0.350131 -0.854871
v 0.350131 -0.350131 0.854872
v 0.350131 -0.350131 -0.854872
v 0.854872 -0.350131 -0.350131
v -0.854872 -0.350131 -0.350131
v 0.854872 -0.350131 0.350131
v -0.854872 -0.350131 0.350131
v -0.664937 0.302258 0.664937
v -0.664937 0.302258 -0.664937
v 0.664937 0.302258 -0.664937
v 0.664938 0.302259 0.664938
v -0.914887 0.373174 0.000000
v 0.000000 0.373174 -0.914887
v 0.914887 0.373174 0.000000
v -0.000000 0.373174 0.914887
v -0.350131 0.350131 0.854872
v -0.350131 0.350131 -0.854871
v 0.350131 0.350131 0.854872
v 0.350131 0.350131 -0.854872
v 0.854872 0.350131 -0.350131
v -0.854872 0.350131 -0.350131
v 0.854872 0.350131 0.350131
v -0.854872 0.350131 0.350131
vt 0.062160 0.376339
vt 0.000000 0.499508
vt 0.000000 0.376339
vt 0.062160 0.749689
vt 0.000000 0.623022
vt 0.062160 0.623022
vt 0.937206 0.623022
vt 0.873889 0.749689
vt 0.873889 0.623022
vt 0.937206 0.499508
vt 0.873889 0.376339
vt 0.937206 0.376339
vt 0.811934 0.376339
vt 0.751190 0.499508
vt 0.751190 0.376339
vt 0.811934 0.749689
vt 0.751190 0.623022
vt 0.811934 0.623022
vt 0.688298 0.623022
vt 0.624433 0.749689
vt 0.624433 0.623022
vt 0.688298 0.499508
vt 0.624433 0.376339
vt 0.688298 0.376339
vt 0.560597 0.376339
vt 0.499285 0.499508
vt 0.499285 0.376339
vt 0.560597 0.749689
vt 0.499285 0.623022
vt 0.560597 0.623022
vt 0.436435 0.623022
vt 0.372590 0.749689
vt 0.372590 0.623022
vt 0.436435 0.499508
vt 0.372590 0.376339
vt 0.436435 0.376339
vt 0.310569 0.376339
vt 0.247659 0.499508
vt 0.247659 0.376339
vt 0.310569 0.749689
vt 0.247659 0.623022
vt 0.310569 0.623022
vt 0.187123 0.623022
vt 0.125212 0.749689
vt 0.125212 0.623022
vt 0.187123 0.499508
vt 0.125212 0.376339
vt 0.187123 0.376339
vt 0.873889 0.126545
vt 1.000000 0.000000
vt 1.000000 0.126545
vt 0.560597 0.246403
vt 0.499285 0.000000
vt 0.624433 0.126545
vt 0.372590 0.126545
vt 0.372590 0.246403
vt 0.310569 0.246403
vt 0.247659 0.000000
vt 0.187123 0.246403
vt 0.125212 0.126545
vt 0.624433 0.878298
vt 0.622125 1.000000
vt 0.499285 1.000000
vt 0.937206 0.749689
vt 1.000000 0.878298
vt 0.873889 0.878298
vt 0.125212 0.878298
vt 0.187123 0.749689
vt 0.247659 1.000000
vt 0.372590 0.878298
vt 0.247659 0.749689
vt 1.000000 1.000000
vt 0.751190 1.000000
vt 0.125212 0.246403
vt 0.062160 0.246403
vt 0.937206 0.246403
vt 1.000000 0.246403
vt 0.811934 0.499508
vt 0.436435 0.749689
vt 0.499285 0.749689
vt 0.247659 0.246403
vt 0.626754 0.000000
vt 0.751190 0.000000
vt 0.310569 0.499508
vt 0.688298 0.749689
vt 0.688298 0.246403
vt 0.751190 0.246403
vt 0.873889 0.246403
vt 0.751190 0.749689
vt 0.624433 0.246403
vt 0.811934 0.246403
vt 0.560597 0.499508
vt 1.000000 0.499508
vt 1.000000 0.376339
vt 1.000000 0.623022
vt 0.371074 0.000000
vt 0.000000 0.126545
vt 0.000000 0.246403
vt 0.000000 1.000000
vt 0.375187 1.000000
vt 0.000000 0.878298
vt 0.000000 0.000000
vt 0.436435 0.246403
vt 0.062160 0.499508
vt 0.499285 0.246403
vt 0.125212 0.499508
vt 0.624433 0.499508
vt 0.372590 0.499508
vt 0.873889 0.499508
vt 0.000000 0.749689
vt 1.000000 0.749689
vn -0.9661 -0.1873 0.1779
vn -0.8337 0.5229 0.1773
vn -0.7395 0.4365 -0.5125
vn -0.8311 -0.1748 -0.5280
vn -0.1779 -0.1873 -0.9661
vn -0.1773 0.5229 -0.8337
vn 0.5125 0.4365 -0.7395
vn 0.5280 -0.1748 -0.8311
vn 0.9661 -0.1873 -0.1779
vn 0.8337 0.5229 -0.1773
vn 0.7395 0.4365 0.5125
vn 0.8311 -0.1748 0.5280
vn 0.1779 -0.1873 0.9661
vn 0.1773 0.5229 0.8337
vn -0.5125 0.4365 0.7395
vn -0.5280 -0.1748 0.8311
vn -0.2014 -0.9629 -0.1798
vn 0.5318 -0.8279 -0.1784
vn 0.4436 -0.7335 0.5150
vn -0.1784 -0.8279 0.5318
vn 0.2014 0.9629 -0.1798
vn -0.5318 0.8279 -0.1784
vn -0.4436 0.7335 0.5150
vn 0.1784 0.8279 0.5318
vn -0.1531 0.8201 0.5514
vn -0.1798 0.9629 -0.2014
vn -0.5150 -0.7335 0.4436
vn -0.5514 -0.8201 -0.1531
vn -0.1779 -0.1873 0.9661
vn -0.1773 0.5229 0.8337
vn -0.5125 0.4365 -0.7395
vn -0.5280 -0.1748 -0.8311
vn 0.5150 0.7335 0.4436
vn 0.5514 0.8201 -0.1531
vn 0.1531 -0.8201 0.5514
vn 0.1798 -0.9629 -0.2014
vn 0.5125 0.4365 0.7395
vn 0.5280 -0.1748 0.8311
vn 0.1779 -0.1873 -0.9661
vn 0.1773 0.5229 -0.8337
vn 0.1531 -0.8201 -0.5514
vn 0.5150 0.7335 -0.4436
vn -0.5150 -0.7335 -0.4436
vn -0.1531 0.8201 -0.5514
vn -0.4436 0.7335 -0.5150
vn 0.1784 0.8279 -0.5318
vn 0.4436 -0.7335 -0.5150
vn -0.1784 -0.8279 -0.5318
vn 0.7395 0.4365 -0.5125
vn 0.8311 -0.1748 -0.5280
vn -0.9661 -0.1873 -0.1779
vn -0.8337 0.5229 -0.1773
vn 0.1798 -0.9629 0.2014
vn 0.5514 0.8201 0.1531
vn -0.5514 -0.8201 0.1531
vn -0.1798 0.9629 0.2014
vn 0.2014 0.9629 0.1798
vn -0.5318 0.8279 0.1784
vn -0.2014 -0.9629 0.1798
vn 0.5318 -0.8279 0.1784
vn 0.9661 -0.1873 0.1779
vn 0.8337 0.5229 0.1773
vn -0.7395 0.4365 0.5125
vn -0.8311 -0.1748 0.5280
vn -0.7398 -0.5066 0.4428
vn 0.8263 -0.5421 0.1527
vn -0.8263 -0.5421 -0.1527
vn 0.7398 -0.5066 -0.4428
vn 0.1527 -0.5421 -0.8263
vn 0.4428 -0.5066 0.7398
vn -0.4428 -0.5066 -0.7398
vn -0.1527 -0.5421 0.8263
vn -0.4428 -0.5066 0.7398
vn 0.1527 -0.5421 0.8263
vn 0.7398 -0.5066 0.4428
vn 0.8263 -0.5421 -0.1527
vn 0.4428 -0.5066 -0.7398
vn -0.1527 -0.5421 -0.8263
vn -0.7398 -0.5066 -0.4428
vn -0.8263 -0.5421 0.1527
vn -0.8236 0.1503 0.5469
vn 0.9660 0.1756 0.1896
vn -0.9660 0.1756 -0.1896
vn 0.8236 0.1503 -0.5469
vn 0.1896 0.1756 -0.9660
vn 0.5469 0.1503 0.8236
vn -0.5469 0.1503 -0.8236
vn -0.1896 0.1756 0.9660
vn -0.5469 0.1503 0.8236
vn 0.1896 0.1756 0.9660
vn 0.8236 0.1503 0.5469
vn 0.9660 0.1756 -0.1896
vn 0.5469 0.1503 -0.8236
vn -0.1896 0.1756 -0.9660
vn -0.8236 0.1503 -0.5469
vn -0.9660 0.1756 0.1896
vn -0.9660 -0.1756 0.1896
vn -0.8263 0.5421 0.1527
vn -0.7398 0.5066 -0.4428
vn -0.8236 -0.1503 -0.5469
vn -0.1896 -0.1756 -0.9660
vn -0.1527 0.5421 -0.8263
vn 0.4428 0.5066 -0.7398
vn 0.5469 -0.1503 -0.8236
vn 0.9660 -0.1756 -0.1896
vn 0.8263 0.5421 -0.1527
vn 0.7398 0.5066 0.4428
vn 0.8236 -0.1503 0.5469
vn 0.1896 -0.1756 0.9660
vn 0.1527 0.5421 0.8263
vn -0.4428 0.5066 0.7398
vn -0.5469 -0.1503 0.8236
vn -0.1798 -0.9629 -0.2014
vn 0.5514 -0.8201 -0.1531
vn 0.5150 -0.7335 0.4436
vn -0.1531 -0.8201 0.5514
vn 0.1798 0.9629 -0.2014
vn -0.5514 0.8201 -0.1531
vn -0.5150 0.7335 0.4436
vn 0.1531 0.8201 0.5514
vn -0.1784 0.8279 0.5318
vn -0.2014 0.9629 -0.1798
vn -0.4436 -0.7335 0.5150
vn -0.5318 -0.8279 -0.1784
vn -0.1896 -0.1756 0.9660
vn -0.1527 0.5421 0.8263
vn -0.4428 0.5066 -0.7398
vn -0.5469 -0.1503 -0.8236
vn 0.4436 0.7335 0.5150
vn 0.5318 0.8279 -0.1784
vn 0.1784 -0.8279 0.5318
vn 0.2014 -0.9629 -0.1798
vn 0.4428 0.5066 0.7398
vn 0.5469 -0.1503 0.8236
vn 0.1896 -0.1756 -0.9660
vn 0.1527 0.5421 -0.8263
vn 0.1784 -0.8279 -0.5318
vn 0.4436 0.7335 -0.5150
vn -0.4436 -0.7335 -0.5150
vn -0.1784 0.8279 -0.5318
vn -0.5150 0.7335 -0.4436
vn 0.1531 0.8201 -0.5514
vn 0.5150 -0.7335 -0.4436
vn -0.1531 -0.8201 -0.5514
vn 0.7398 0.5066 -0.4428
vn 0.8236 -0.1503 -0.5469
vn -0.9660 -0.1756 -0.1896
vn -0.8263 0.5421 -0.1527
vn 0.2014 -0.9629 0.1798
vn 0.5318 0.8279 0.1784
vn -0.5318 -0.8279 0.1784
vn -0.2014 0.9629 0.1798
vn 0.1798 0.9629 0.2014
vn -0.5514 0.8201 0.1531
vn -0.1798 -0.9629 0.2014
vn 0.5514 -0.8201 0.1531
vn 0.9660 -0.1756 0.1896
vn 0.8263 0.5421 0.1527
vn -0.7398 0.5066 0.4428
vn -0.8236 -0.1503 0.5469
vn -0.7395 -0.4365 0.5125
vn 0.8337 -0.5229 0.1773
vn -0.8337 -0.5229 -0.1773
vn 0.7395 -0.4365 -0.5125
vn 0.1773 -0.5229 -0.8337
vn 0.5125 -0.4365 0.7395
vn -0.5125 -0.4365 -0.7395
vn -0.1773 -0.5229 0.8337
vn -0.5125 -0.4365 0.7395
vn 0.1773 -0.5229 0.8337
vn 0.7395 -0.4365 0.5125
vn 0.8337 -0.5229 -0.1773
vn 0.5125 -0.4365 -0.7395
vn -0.1773 -0.5229 -0.8337
vn -0.7395 -0.4365 -0.5125
vn -0.8337 -0.5229 0.1773
vn -0.8311 0.1748 0.5280
vn 0.9661 0.1873 0.1779
vn -0.9661 0.1873 -0.1779
vn 0.8311 0.1748 -0.5280
vn 0.1779 0.1873 -0.9661
vn 0.5280 0.1748 0.8311
vn -0.5280 0.1748 -0.8311
vn -0.1779 0.1873 0.9661
vn -0.5280 0.1748 0.8311
vn 0.1779 0.1873 0.9661
vn 0.8311 0.1748 0.5280
vn 0.9661 0.1873 -0.1779
vn 0.5280 0.1748 -0.8311
vn -0.1779 0.1873 -0.9661
vn -0.8311 0.1748 -0.5280
vn -0.9661 0.1873 0.1779
f 82/1/1 21/2/1 71/3/1
f 56/4/2 87/5/2 98/6/2
f 96/7/3 4/8/3 84/9/3
f 47/10/4 68/11/4 80/12/4
f 76/13/5 22/14/5 72/15/5
f 28/16/6 88/17/6 92/18/6
f 94/19/7 8/20/7 85/21/7
f 39/22/8 69/23/8 78/24/8
f 79/25/9 23/26/9 73/27/9
f 46/28/10 89/29/10 95/30/10
f 97/31/11 6/32/11 86/33/11
f 60/34/12 70/35/12 81/36/12
f 77/37/13 24/38/13 74/39/13
f 38/40/14 90/41/14 93/42/14
f 91/43/15 2/44/15 83/45/15
f 32/46/16 67/47/16 75/48/16
f 52/49/17 25/50/17 33/51/17
f 45/52/18 41/53/18 54/54/18
f 66/55/19 5/56/19 37/57/19
f 61/58/20 29/59/20 64/60/20
f 53/61/21 26/62/21 42/63/21
f 44/64/22 34/65/22 51/66/22
f 63/67/23 2/44/23 30/68/23
f 62/69/24 38/40/24 65/70/24
f 62/69/25 30/68/25 20/71/25
f 51/66/26 26/72/26 50/73/26
f 64/60/27 1/74/27 55/75/27
f 43/76/28 33/51/28 9/77/28
f 24/38/29 75/48/29 74/39/29
f 90/41/30 30/68/30 91/43/30
f 4/8/31 92/18/31 84/9/31
f 68/11/32 31/78/32 76/13/32
f 65/70/33 6/32/33 58/79/33
f 46/28/34 42/63/34 17/80/34
f 61/58/35 37/57/35 19/81/35
f 54/54/36 25/82/36 49/83/36
f 6/32/37 93/42/37 86/33/37
f 70/35/38 40/84/38 77/37/38
f 22/14/39 78/24/39 72/15/39
f 88/17/40 36/85/40 94/19/40
f 35/86/41 49/83/41 13/87/41
f 8/20/42 53/61/42 46/28/42
f 3/88/43 52/49/43 43/76/43
f 28/16/44 50/73/44 14/89/44
f 4/8/45 51/66/45 28/16/45
f 36/85/46 50/73/46 53/61/46
f 7/90/47 54/54/47 35/86/47
f 27/91/48 49/83/48 52/49/48
f 8/20/49 95/30/49 85/21/49
f 69/23/50 48/92/50 79/25/50
f 21/93/51 80/12/51 71/94/51
f 87/95/52 44/64/52 96/7/52
f 25/96/53 66/55/53 61/58/53
f 42/63/54 58/79/54 17/80/54
f 33/97/55 55/75/55 9/98/55
f 26/99/56 63/67/56 62/69/56
f 26/100/57 65/70/57 42/63/57
f 34/101/58 56/4/58 63/67/58
f 25/102/59 64/60/59 33/97/59
f 41/53/60 57/103/60 66/55/60
f 23/26/61 81/36/61 73/27/61
f 89/29/62 58/79/62 97/31/62
f 2/44/63 98/6/63 83/45/63
f 67/47/64 59/104/64 82/1/64
f 1/74/65 82/1/65 55/75/65
f 73/27/66 57/103/66 16/105/66
f 71/94/67 43/76/67 9/77/67
f 7/90/68 79/25/68 45/52/68
f 72/15/69 35/86/69 13/87/69
f 5/56/70 77/37/70 37/57/70
f 3/88/71 76/13/71 27/91/71
f 74/39/72 29/59/72 19/81/72
f 75/48/73 1/74/73 29/59/73
f 37/57/74 74/39/74 19/81/74
f 81/36/75 5/56/75 57/103/75
f 45/52/76 73/27/76 16/105/76
f 78/24/77 7/90/77 35/86/77
f 27/91/78 72/15/78 13/87/78
f 80/12/79 3/88/79 43/76/79
f 55/75/80 71/3/80 9/98/80
f 83/45/81 59/104/81 10/106/81
f 23/26/82 97/31/82 60/34/82
f 21/93/83 96/7/83 47/10/83
f 85/21/84 48/92/84 15/107/84
f 22/14/85 94/19/85 39/22/85
f 86/33/86 40/84/86 18/108/86
f 84/9/87 31/78/87 12/109/87
f 24/38/88 91/43/88 32/46/88
f 32/46/89 83/45/89 10/106/89
f 93/42/90 24/38/90 40/84/90
f 60/34/91 86/33/91 18/108/91
f 95/30/92 23/26/92 48/92/92
f 39/22/93 85/21/93 15/107/93
f 92/18/94 22/14/94 31/78/94
f 47/10/95 84/9/95 12/109/95
f 98/6/96 21/2/96 59/104/96
f 82/1/97 59/104/97 21/2/97
f 56/4/98 11/110/98 87/5/98
f 96/7/99 44/64/99 4/8/99
f 47/10/100 12/109/100 68/11/100
f 76/13/101 31/78/101 22/14/101
f 28/16/102 14/89/102 88/17/102
f 94/19/103 36/85/103 8/20/103
f 39/22/104 15/107/104 69/23/104
f 79/25/105 48/92/105 23/26/105
f 46/28/106 17/80/106 89/29/106
f 97/31/107 58/79/107 6/32/107
f 60/34/108 18/108/108 70/35/108
f 77/37/109 40/84/109 24/38/109
f 38/40/110 20/71/110 90/41/110
f 91/43/111 30/68/111 2/44/111
f 32/46/112 10/106/112 67/47/112
f 52/49/113 49/83/113 25/50/113
f 45/52/114 16/105/114 41/53/114
f 66/55/115 57/103/115 5/56/115
f 61/58/116 19/81/116 29/59/116
f 53/61/117 50/73/117 26/62/117
f 44/64/118 11/111/118 34/65/118
f 63/67/119 56/4/119 2/44/119
f 62/69/120 20/71/120 38/40/120
f 62/69/121 63/67/121 30/68/121
f 51/66/122 34/65/122 26/72/122
f 64/60/123 29/59/123 1/74/123
f 43/76/124 52/49/124 33/51/124
f 24/38/125 32/46/125 75/48/125
f 90/41/126 20/71/126 30/68/126
f 4/8/127 28/16/127 92/18/127
f 68/11/128 12/109/128 31/78/128
f 65/70/129 38/40/129 6/32/129
f 46/28/130 53/61/130 42/63/130
f 61/58/131 66/55/131 37/57/131
f 54/54/132 41/53/132 25/82/132
f 6/32/133 38/40/133 93/42/133
f 70/35/134 18/108/134 40/84/134
f 22/14/135 39/22/135 78/24/135
f 88/17/136 14/89/136 36/85/136
f 35/86/137 54/54/137 49/83/137
f 8/20/138 36/85/138 53/61/138
f 3/88/139 27/91/139 52/49/139
f 28/16/140 51/66/140 50/73/140
f 4/8/141 44/64/141 51/66/141
f 36/85/142 14/89/142 50/73/142
f 7/90/143 45/52/143 54/54/143
f 27/91/144 13/87/144 49/83/144
f 8/20/145 46/28/145 95/30/145
f 69/23/146 15/107/146 48/92/146
f 21/93/147 47/10/147 80/12/147
f 87/95/148 11/111/148 44/64/148
f 25/96/149 41/53/149 66/55/149
f 42/63/150 65/70/150 58/79/150
f 33/97/151 64/60/151 55/75/151
f 26/99/152 34/101/152 63/67/152
f 26/100/153 62/69/153 65/70/153
f 34/101/154 11/110/154 56/4/154
f 25/102/155 61/58/155 64/60/155
f 41/53/156 16/105/156 57/103/156
f 23/26/157 60/34/157 81/36/157
f 89/29/158 17/80/158 58/79/158
f 2/44/159 56/4/159 98/6/159
f 67/47/160 10/106/160 59/104/160
f 1/74/161 67/47/161 82/1/161
f 73/27/162 81/36/162 57/103/162
f 71/94/163 80/12/163 43/76/163
f 7/90/164 69/23/164 79/25/164
f 72/15/165 78/24/165 35/86/165
f 5/56/166 70/35/166 77/37/166
f 3/88/167 68/11/167 76/13/167
f 74/39/168 75/48/168 29/59/168
f 75/48/169 67/47/169 1/74/169
f 37/57/170 77/37/170 74/39/170
f 81/36/171 70/35/171 5/56/171
f 45/52/172 79/25/172 73/27/172
f 78/24/173 69/23/173 7/90/173
f 27/91/174 76/13/174 72/15/174
f 80/12/175 68/11/175 3/88/175
f 55/75/176 82/1/176 71/3/176
f 83/45/177 98/6/177 59/104/177
f 23/26/178 89/29/178 97/31/178
f 21/93/179 87/95/179 96/7/179
f 85/21/180 95/30/180 48/92/180
f 22/14/181 88/17/181 94/19/181
f 86/33/182 93/42/182 40/84/182
f 84/9/183 92/18/183 31/78/183
f 24/38/184 90/41/184 91/43/184
f 32/46/185 91/43/185 83/45/185
f 93/42/186 90/41/186 24/38/186
f 60/34/187 97/31/187 86/33/187
f 95/30/188 89/29/188 23/26/188
f 39/22/189 94/19/189 85/21/189
f 92/18/190 88/17/190 22/14/190
f 47/10/191 96/7/191 84/9/191
f 98/6/192 87/5/192 21/2/192
